HIERARCHY
ROOT Hips
{
	OFFSET 0.00000 0.00000 0.00000
	CHANNELS 6 Xposition Yposition Zposition Zrotation Yrotation Xrotation 
	JOINT LHipJoint
	{
		OFFSET 0 0 0
		CHANNELS 3 Zrotation Yrotation Xrotation
		JOINT LeftHip
		{
			OFFSET 1.26600 -1.82114 0.91038
			CHANNELS 3 Zrotation Yrotation Xrotation
			JOINT LeftKnee
			{
				OFFSET 2.50076 -6.87080 0.00000
				CHANNELS 3 Zrotation Yrotation Xrotation
				JOINT LeftAnkle
				{
					OFFSET 2.57364 -7.07102 0.00000
					CHANNELS 3 Zrotation Yrotation Xrotation
					JOINT LeftToe
					{
						OFFSET 0.13572 -0.37290 1.97004
						CHANNELS 3 Zrotation Yrotation Xrotation
						End Site
						{
							OFFSET 0.00000 -0.00000 1.01383
						}
					}
				}
			}
		}
	}
	JOINT RHipJoint
	{
		OFFSET 0 0 0
		CHANNELS 3 Zrotation Yrotation Xrotation
		JOINT RightHip
		{
			OFFSET -1.20803 -1.82114 0.91038
			CHANNELS 3 Zrotation Yrotation Xrotation
			JOINT RightKnee
			{
				OFFSET -2.54916 -7.00377 0.00000
				CHANNELS 3 Zrotation Yrotation Xrotation
				JOINT RightAnkle
				{
					OFFSET -2.56374 -7.04382 0.00000
					CHANNELS 3 Zrotation Yrotation Xrotation
					JOINT RightToe
					{
						OFFSET -0.23520 -0.64621 2.09921
						CHANNELS 3 Zrotation Yrotation Xrotation
						End Site
						{
							OFFSET -0.00000 -0.00000 1.10065
						}
					}
				}
			}
		}
	}
	JOINT lowerback
	{
		OFFSET 0 0 0
		CHANNELS 3 Zrotation Yrotation Xrotation
		JOINT Chest
		{
			OFFSET 0.05492 2.10797 -0.12074
			CHANNELS 3 Zrotation Yrotation Xrotation
			JOINT Chest2
			{
				OFFSET 0.04577 2.11592 -0.04483
				CHANNELS 3 Zrotation Yrotation Xrotation
				JOINT lowerneck
				{
					OFFSET 0 0 0
					CHANNELS 3 Zrotation Yrotation Xrotation
					JOINT Neck
					{
						OFFSET -0.10759 1.80167 0.15770
						CHANNELS 3 Zrotation Yrotation Xrotation
						JOINT Head
						{
							OFFSET 0.09237 1.77509 -0.40848
							CHANNELS 3 Zrotation Yrotation Xrotation
							End Site
							{
								OFFSET 0.03805 1.84093 -0.15754
							}
						}
					}
				}
				JOINT LeftCollar
				{
					OFFSET 0 0 0
					CHANNELS 3 Zrotation Yrotation Xrotation
					JOINT LeftShoulder
					{
						OFFSET 3.42372 1.09575 -0.28209
CHANNELS 3 Zrotation Xrotation Yrotation
						JOINT LeftElbow
						{
OFFSET 0 -4.956810 0.000000
CHANNELS 3 Zrotation Xrotation Yrotation
							JOINT LeftWrist
							{
OFFSET 0 -3.409150 0.000000
CHANNELS 3 Zrotation Xrotation Yrotation
								JOINT lhand
								{
									OFFSET 0 0 0
CHANNELS 3 Zrotation Xrotation Yrotation
									JOINT LFingers
									{
OFFSET 0 -0.616400 0.000000
CHANNELS 3 Zrotation Xrotation Yrotation
										End Site
										{
OFFSET 0 -0.496960 0.000000
										}
									}
								}
								JOINT LThumb
								{
OFFSET 0 0.000000 0.000000
CHANNELS 3 Zrotation Xrotation Yrotation
									End Site
									{
OFFSET 0 -0.504550 0.504550
									}
								}
							}
						}
					}
				}
				JOINT RightCollar
				{
					OFFSET 0 0 0
					CHANNELS 3 Zrotation Yrotation Xrotation
					JOINT RightShoulder
					{
						OFFSET -3.24731 1.15872 -0.32221
CHANNELS 3 Zrotation Xrotation Yrotation
						JOINT RightElbow
						{
OFFSET 0 -5.352000 0.000000
CHANNELS 3 Zrotation Xrotation Yrotation
							JOINT RightWrist
							{
OFFSET 0 -3.437210 -0.000000
CHANNELS 3 Zrotation Xrotation Yrotation
								JOINT rhand
								{
									OFFSET 0 0 0
CHANNELS 3 Zrotation Xrotation Yrotation
									JOINT RFingers
									{
OFFSET 0 -0.720090 0.000000
CHANNELS 3 Zrotation Xrotation Yrotation
										End Site
										{
OFFSET 0 -0.580560 0.000000
										}
									}
								}
								JOINT RThumb
								{
OFFSET 0 0.000000 0.000000
CHANNELS 3 Zrotation Xrotation Yrotation
									End Site
									{
OFFSET 0 -0.589420 0.589420
									}
								}
							}
						}
					}
				}
			}
		}
	}
}
MOTION
Frames: 8
Frame Time: .0083333
9.0859 17.3851 -21.2837 369.6760 90.4015 728.5970 0.0000 0.0000 0.0000 -22.7348 -0.2348 -0.0674 1.1011 6.6676 18.7342 0.2605 -11.0531 -11.2006 0.3179 3.6242 10.0218 0.0000 0.0000 0.0000 16.5991 5.2909 -31.4859 -7.1580 -15.4635 49.4694 -0.4112 0.8020 -11.8587 -0.1535 -2.5244 6.9573 -2.8198 -0.2445 6.7646 2.2668 -0.3865 3.0844 3.9539 -0.1968 -0.5707 -8.8478 -3.4065 -13.9100 4.1787 -2.4476 37.4638 3.0939 -1.2217 15.7982 0.0000 -0.0000 0.0000 2.6637 -0.0845 -24.2462 18.9832 -29.3978 5.0226 20.0267 2.3419 -20.2703 0.0 0.0 0.0 -7.1250 0.0 0.0 -8.5433 51.2426 1.3219 0.0000 -0.0000 0.0000 -3.4117 2.4036 13.6748 -16.4496 -26.1265 -3.8418 -16.1396 -10.8285 -14.6805 0.0 0.0 0.0 7.1250 0.0 -0.0 7.7231 14.8202 5.5422
9.1844 17.3601 -21.3258 289.1570 91.3294 648.6780 0.0000 0.0000 0.0000 -24.3118 -0.2693 -0.1671 1.0672 6.5676 18.4406 0.2796 -11.0221 -11.4100 0.3063 3.5580 9.8364 0.0000 0.0000 0.0000 15.0900 4.9460 -32.6180 -6.4674 -14.8665 46.8300 -0.3366 1.2588 -10.5909 -0.1059 -2.0986 5.7783 -3.3406 -0.1683 6.4474 1.6385 -0.3294 2.9330 3.5900 -0.1722 -0.5567 -8.8466 -3.5335 -14.0130 4.4024 -2.7238 37.4267 3.1422 -1.3078 15.8327 -0.0000 0.0000 0.0000 3.0776 -0.2933 -25.1535 19.1010 -29.544 5.0805 20.9809 2.0612 -20.259 0.0 0.0 0.0 -7.1250 0.0 0.0 -7.5968 51.3935 1.2022 -0.0000 0.0000 0.0000 -3.0202 2.1278 12.5434 -16.4689 -26.1524 -3.8503 -15.8266 -9.7616 -14.8076 0.0 0.0 0.0 7.1250 0.0 -0.0 7.9370 14.7179 5.7161
9.3002 17.3653 -21.3187 310.2930 90.8448 669.6840 0.0000 0.0000 0.0000 -23.5422 0.2053 0.3808 1.0492 6.5135 18.2819 0.2503 -11.5706 -11.3257 0.3509 3.8060 10.5314 0.0000 0.0000 0.0000 15.9674 4.5929 -32.4649 -5.7268 -14.1582 43.8750 -0.2906 1.5519 -9.7592 -0.0939 -1.9762 5.4399 -2.7450 -0.2457 6.6295 1.8205 -0.3950 2.9629 3.4478 -0.1985 -0.6257 -8.8941 -3.5310 -13.9449 4.4502 -2.7303 37.3958 3.1691 -1.3109 15.8032 0.0000 0.0000 0.0000 3.1462 -0.3981 -25.4036 19.1146 -29.5608 5.0873 21.8566 2.2323 -20.0751 0.0 0.0 0.0 -7.1250 0.0 0.0 -6.6710 51.3526 1.0478 0.0000 0.0000 0.0000 -2.9853 2.0629 12.6004 -16.6165 -26.3494 -3.9156 -16.5582 -10.4473 -14.8854 0.0 0.0 0.0 7.1250 0.0 -0.0 7.4427 14.5721 5.3771
9.4270 17.3790 -21.2917 393.7610 90.8781 752.8190 0.0000 0.0000 0.0000 -22.1299 0.7986 1.2981 0.9990 6.3607 17.8348 0.1894 -12.1888 -10.9350 0.4183 4.1512 11.5024 0.0000 0.0000 0.0000 17.4569 4.3525 -31.7897 -5.0485 -13.4382 41.0318 -0.2675 1.8779 -9.2955 -0.0884 -1.9181 5.2795 -2.0885 -0.4302 6.8615 2.3310 -0.5857 3.0765 3.6213 -0.2879 -0.6240 -8.9963 -3.4318 -13.8118 4.4433 -2.5639 37.3036 3.2087 -1.2573 15.7111 0.0000 0.0000 0.0000 2.9746 -0.4108 -25.1128 19.1609 -29.6181 5.1101 21.3776 2.5132 -20.0998 0.0 0.0 0.0 -7.1250 0.0 0.0 -7.1539 51.296 1.1143 0.0000 0.0000 0.0000 -3.2302 2.0685 14.3024 -17.0093 -26.8701 -4.0915 -18.6614 -14.5045 -13.921 0.0 0.0 0.0 7.1250 0.0 -0.0 5.9891 15.3733 4.2104
9.5498 17.3644 -21.2786 363.5000 90.9314 722.7000 0.0000 0.0000 0.0000 -22.5529 1.1494 1.8392 0.9307 6.1456 17.2076 0.1541 -12.3762 -10.6240 0.3584 3.8461 10.6441 0.0000 0.0000 0.0000 17.1199 4.0892 -31.7887 -4.4465 -12.7319 38.3731 -0.2400 2.4274 -8.7314 -0.0431 -1.3392 3.6826 -2.8999 -0.6389 6.6481 2.4370 -0.9107 3.0705 4.2110 -0.4624 -0.4685 -9.2086 -3.3040 -13.7630 4.3369 -2.2763 37.2477 3.2460 -1.1832 15.6489 -0.0000 0.0000 0.0000 2.6518 -0.4038 -24.4749 19.2012 -29.6679 5.1301 20.6835 2.8058 -20.0748 0.0 0.0 0.0 -7.1250 0.0 0.0 -7.8324 51.1519 1.1932 -0.0000 0.0000 0.0000 -3.6975 1.7778 13.899 -16.8110 -26.608 -4.0023 -16.7657 -11.9332 -14.5251 0.0 0.0 0.0 7.1250 0.0 -0.0 7.2954 14.9235 5.2137
9.6661 17.3625 -21.2733 327.4050 91.2892 686.7500 0.0000 0.0000 0.0000 -23.3749 1.4095 2.5240 0.8453 5.8641 16.3907 0.1411 -12.2419 -10.3928 0.2681 3.3308 9.2012 0.0000 0.0000 0.0000 16.3226 4.0977 -31.8256 -3.9328 -12.0704 35.9814 -0.2287 2.9617 -8.4978 -0.0289 -1.0969 3.0156 -3.7878 -0.7313 6.5478 2.3247 -1.0885 3.0806 4.6079 -0.5633 -0.3673 -9.4292 -3.3042 -13.9209 4.4239 -2.2307 37.2899 3.3325 -1.1865 15.7111 -0.0000 0.0000 0.0000 2.5395 -0.5839 -24.1337 19.1770 -29.6381 5.1181 20.1816 2.9984 -19.9481 0.0 0.0 0.0 -7.1250 0.0 0.0 -8.2863 50.9365 1.2191 -0.0000 0.0000 0.0000 -3.927 1.4928 14.6664 -16.8664 -26.6813 -4.0272 -17.6007 -13.3374 -14.3629 0.0 0.0 0.0 7.1250 0.0 -0.0 6.7240 15.014 4.7862
9.7876 17.3669 -21.2690 327.0820 91.4574 686.3440 0.0000 0.0000 0.0000 -23.4375 1.7622 3.4669 0.7617 5.5734 15.5516 0.1258 -12.1832 -10.1729 0.2063 2.9246 8.0688 0.0000 0.0000 0.0000 16.2013 4.3585 -31.5355 -3.5067 -11.4734 33.8935 -0.2373 3.3113 -8.6571 -0.0133 -0.7441 2.0451 -3.8675 -0.8114 6.5841 2.3015 -1.1976 3.1850 4.6354 -0.6217 -0.2660 -9.5244 -3.2979 -14.0158 4.5830 -2.2478 37.2947 3.4162 -1.1873 15.7417 0.0000 0.0000 0.0000 2.6557 -0.7426 -24.2713 19.2295 -29.7028 5.1441 19.7567 2.8141 -19.9031 0.0 0.0 0.0 -7.1250 0.0 0.0 -8.6885 50.8195 1.254 0.0000 0.0000 0.0000 -4.0879 1.1985 15.5797 -16.9636 -26.8098 -4.0709 -18.8052 -15.2786 -13.9106 0.0 0.0 0.0 7.1250 0.0 -0.0 5.8904 15.3704 4.1407
9.9085 17.3694 -21.2677 330.3700 91.5469 689.7290 0.0000 0.0000 0.0000 -23.3015 2.2613 4.1025 0.6835 5.2857 14.7253 0.0940 -12.4430 -9.9380 0.2038 2.9071 8.0203 0.0000 0.0000 0.0000 16.2768 4.5216 -31.3745 -3.1001 -10.8554 31.7937 -0.2485 3.5857 -8.8639 -0.0142 0.7691 -2.1137 -3.7543 -0.8662 6.4805 2.2735 -1.2623 3.1683 4.5439 -0.6540 -0.2226 -9.2236 -3.3078 -13.9211 4.3610 -2.2816 37.2719 3.2585 -1.1884 15.7001 0.0000 0.0000 0.0000 2.799 -0.7659 -24.6689 19.2872 -29.774 5.1727 19.9344 2.5758 -20.0837 0.0 0.0 0.0 -7.1250 0.0 0.0 -8.5729 51.0349 1.2827 0.0000 0.0000 0.0000 -4.075 1.2467 15.9009 -17.1554 -27.0622 -4.1578 -18.9852 -15.8024 -13.7796 0.0 0.0 0.0 7.1250 0.0 -0.0 5.7635 15.4901 4.0356
